<svg width="528" height="114" viewBox="0 0 528 114" fill="none" xmlns="http://www.w3.org/2000/svg">
<path d="M70.4 0.75H0V75.15C0 95.85 16.8 112.65 37.5 112.65H111.9V0.75H70.4Z" fill="#FFDD00"/>
<path d="M93.3 56.65H76.4V36.25H55.9V19.35H93.3V56.65Z" fill="#0F265C"/>
<path d="M317.2 65.4H307.3V112.5H317.3L317.2 65.4ZM265.3 65.4H255.3V112.5H265.3V93.1H285.1V112.6H295.1V65.4H290.2C287.4 65.4 285.1 67.7 285.1 70.5V83.9H265.3V65.4ZM192.8 65.4H182.8V112.5H192.8V65.4ZM154.3 74.7C161.2 74.7 164.5 76.7 164.5 81.5C164.5 86.1 161.1 88.5 154.3 88.5H146.9V74.7H154.3ZM156 65.4H136.9V112.5H146.9V97.7H156C161.4 97.7 165.9 96.2 169.3 93.2C172.7 90.2 174.4 86.2 174.4 81.3C174.4 76.5 172.7 72.6 169.4 69.8C166 66.9 161.6 65.4 156 65.4ZM165.4 33.2C165.4 37.2 162.5 38.6 156.9 38.6H146.9V28H157.2C162.6 28 165.4 29.7 165.4 33.2ZM164.3 14.7C164.3 17.9 161.7 19.5 156.5 19.5H146.9V9.9H156C161.9 9.9 164.3 11.2 164.3 14.7ZM169.5 23.3C172.7 20.8 174.3 17.6 174.3 13.8C174.3 5.4 167.9 0.8 158 0.8H136.9V47.9H159.2C164.1 47.9 168 46.6 171 44.1C174 41.5 175.5 38.2 175.5 34.1C175.5 29.7 173.5 26.1 169.5 23.3ZM208.5 29.7H196.8L202.6 14.3L208.5 29.7ZM215.5 47.8H225.9L208.7 3.9C207.9 2 206 0.7 203.9 0.7H197.9L179.5 47.8H189.9L193.6 38.5H211.8L215.5 47.8ZM226.6 64.7C219.5 64.7 213.7 66.9 209 71.4C204.3 75.8 201.9 81.8 201.9 89.1C201.9 96.4 204.3 102.2 209 106.7C213.8 111.1 219.8 113.4 227 113.4C234.9 113.4 241.3 110.4 246.2 104.5L239.5 97.4C236.3 101.8 232 104 226.7 104C222.6 104 219.2 102.7 216.4 100C213.6 97.3 212.2 93.6 212.2 89C212.2 84.4 213.6 80.8 216.4 78.2C219.2 75.5 222.5 74.2 226.2 74.2C229.8 74.2 233.1 75.4 235.7 77.4C237.7 79 240.6 78.7 242.4 76.9L245.5 73.8C240.6 67.7 234.3 64.7 226.6 64.7ZM265.1 47.8H274.2V0.7H264.3V32.6L246.7 3.2C245.8 1.7 244.1 0.7 242.3 0.7H233.2V47.8H243.2V16L260.7 45.3C261.7 46.9 263.3 47.8 265.1 47.8ZM297.7 35.2C294.9 32.5 293.5 28.8 293.5 24.2C293.5 19.6 294.9 16 297.7 13.4C300.5 10.7 303.8 9.4 307.4 9.4C311 9.4 314.3 10.6 317 12.6C319 14.2 321.8 13.8 323.6 12L326.7 8.9C321.9 3 315.7 0 307.9 0C300.8 0 295 2.2 290.3 6.7C285.6 11.1 283.2 17.1 283.2 24.4C283.2 31.7 285.6 37.5 290.3 41.9C295.1 46.3 301.1 48.6 308.2 48.6C316.1 48.6 322.5 45.6 327.4 39.7L320.7 32.6C317.5 37 313.2 39.2 307.9 39.2C303.9 39.2 300.5 37.9 297.7 35.2ZM338.7 65.4H329.6V112.5H339.6V80.8L357.2 110.1C358.1 111.6 359.8 112.6 361.6 112.6H370.7V65.4H360.7V97.3L343.1 67.8C342.1 66.4 340.5 65.4 338.7 65.4ZM370.9 24.2C370.9 28.4 369.6 31.9 367.1 34.8C364.6 37.7 361.2 39.1 356.9 39.1C352.5 39.1 349.1 37.7 346.5 34.8C343.9 31.9 342.7 28.4 342.7 24.2C342.7 20 344 16.5 346.5 13.6C349.1 10.7 352.5 9.3 356.9 9.3C361 9.3 364.3 10.8 366.9 13.7C369.5 16.6 370.9 20.1 370.9 24.2ZM374 41.7C378.7 37.1 381.1 31.3 381.1 24.2C381.1 17.2 378.7 11.4 374 6.9C369.3 2.3 363.5 0 356.7 0C349.9 0 344.1 2.3 339.5 6.9C334.9 11.5 332.5 17.3 332.5 24.2C332.5 31.3 334.9 37 339.5 41.7C344.1 46.3 349.9 48.6 356.7 48.6C363.5 48.6 369.2 46.3 374 41.7ZM394.1 99.9C391.3 97.2 389.9 93.5 389.9 88.9C389.9 84.3 391.3 80.7 394.1 78.1C396.9 75.4 400.2 74.1 403.9 74.1C407.5 74.1 410.8 75.3 413.5 77.3C415.5 78.9 418.3 78.5 420.1 76.7L423.2 73.6C418.4 67.7 412.2 64.7 404.4 64.7C397.3 64.7 391.5 66.9 386.8 71.4C382.1 75.8 379.7 81.8 379.7 89.1C379.7 96.4 382.1 102.2 386.8 106.7C391.6 111.1 397.6 113.4 404.8 113.4C412.7 113.4 419.1 110.4 424 104.5L417.3 97.4C414.1 101.8 409.8 104 404.5 104C400.3 104 396.9 102.6 394.1 99.9ZM462.8 112.6H472.8V65.4H467.9C465.1 65.4 462.8 67.7 462.8 70.5V83.9H443V65.4H433V112.5H443V93.1H462.8V112.6ZM509.8 94.4H498.1L504 79L509.8 94.4ZM527.2 112.6L510 68.7C509.2 66.8 507.4 65.5 505.3 65.5H499.2L480.8 112.6H491.2L494.9 103.3H513.1L516.9 112.6H527.2Z" fill="#0F265C"/>
</svg>
